<svg xmlns="http://www.w3.org/2000/svg" viewBox="0 0 173 188">
<path fill="#1ca0be"  
	d="
M99.972206,153.997131 
	C102.141159,161.399689 104.196938,168.414764 106.664528,176.835052 
	C108.021935,172.089447 109.072739,168.657791 109.984467,165.189590 
	C116.624847,139.929565 123.312096,114.681267 129.765198,89.373344 
	C130.585541,86.156097 131.788223,84.911781 135.090607,85.089165 
	C139.575836,85.330101 144.084122,85.111687 148.581818,85.157600 
	C155.078506,85.223923 156.483627,87.414429 154.053467,93.641441 
	C150.244934,103.400345 146.547836,113.206245 142.517670,122.873062 
	C141.264496,125.878998 141.688675,127.317596 144.355286,129.341766 
	C158.148560,139.811844 165.498291,153.869370 166.454041,171.183868 
	C166.895554,179.182129 162.531250,183.780609 154.583420,183.783279 
	C111.267670,183.797867 67.951920,183.795044 24.636173,183.781082 
	C16.622793,183.778503 12.570520,179.782028 12.785963,171.795242 
	C13.260981,154.185608 20.708477,140.013550 34.705875,129.480942 
	C37.661251,127.257118 37.809631,125.636116 36.534184,122.563980 
	C32.452362,112.732178 28.606846,102.800362 24.792435,92.860214 
	C22.738010,87.506493 24.253286,85.281288 29.860657,85.167397 
	C34.190456,85.079453 38.547626,85.432571 42.848034,85.066193 
	C46.917961,84.719444 48.569435,86.061447 49.609550,90.152596 
	C56.532520,117.383209 63.776253,144.532288 70.927292,171.704834 
	C71.211815,172.785965 71.612961,173.836411 72.386536,176.211365 
	C73.355736,173.413071 73.981064,171.831406 74.453865,170.205383 
	C77.100136,161.104614 79.476143,151.916489 82.430893,142.917908 
	C83.889526,138.475723 83.674850,134.944931 81.140221,130.858017 
	C74.876999,120.759056 76.646179,117.998558 88.694183,118.008202 
	C91.190941,118.010201 93.724335,117.827316 96.176689,118.178108 
	C101.169029,118.892235 103.625015,122.996147 100.496452,126.702881 
	C94.111122,134.268265 95.504738,141.798950 98.691605,149.786911 
	C99.183617,151.020111 99.474922,152.333389 99.972206,153.997131 
z"/>
<path fill="#116072" opacity="1.000000" stroke="none" 
	d="
M50.871307,65.254662 
	C44.197979,63.287079 37.452164,61.529945 30.880819,59.266289 
	C27.410286,58.070786 23.280418,55.800549 24.199978,51.728325 
	C24.823565,48.966801 28.147354,46.052689 30.976435,44.718571 
	C36.043865,42.328907 41.727108,41.281052 46.986015,39.241825 
	C48.805115,38.536442 50.661465,36.834373 51.581779,35.099922 
	C54.918377,28.811695 57.329807,21.981674 61.085777,15.978948 
	C66.536522,7.267672 74.784248,5.717590 83.472496,11.179675 
	C87.634216,13.796043 91.256531,13.907284 95.481186,11.273426 
	C104.644798,5.560381 112.871567,7.332805 118.501122,16.632017 
	C122.092087,22.563787 124.525368,29.186213 127.758263,35.351875 
	C128.597580,36.952587 130.273849,38.542763 131.937286,39.206520 
	C138.090485,41.661793 144.643723,43.219028 150.583511,46.076435 
	C157.077011,49.200203 157.135895,54.905388 150.543854,57.910427 
	C143.672562,61.042763 136.160385,62.769161 128.145081,65.117989 
	C124.448730,65.814835 121.769402,66.168777 121.928825,70.555252 
	C122.187798,77.681084 118.323502,82.570656 112.139481,84.280617 
	C104.676735,86.344162 97.369362,84.027328 93.561874,78.390503 
	C89.561562,72.468208 89.283073,72.470695 85.564018,78.462135 
	C82.200691,83.880493 74.963120,86.222672 67.434288,84.329170 
	C61.164764,82.752373 57.023766,78.255013 57.120106,71.637688 
	C57.190914,66.774094 55.316925,65.075378 50.871307,65.254662 
z"/>
<path fill="#a4d9e5" opacity="1.000000" stroke="none" 
	d="
M50.898975,65.699005 
	C55.316925,65.075378 57.190914,66.774094 57.120106,71.637688 
	C57.023766,78.255013 61.164764,82.752373 67.434288,84.329170 
	C74.963120,86.222672 82.200691,83.880493 85.564018,78.462135 
	C89.283073,72.470695 89.561562,72.468208 93.561874,78.390503 
	C97.369362,84.027328 104.676735,86.344162 112.139481,84.280617 
	C118.323502,82.570656 122.187798,77.681084 121.928825,70.555252 
	C121.769402,66.168777 124.448730,65.814835 127.749664,65.188507 
	C126.992058,72.403831 127.120850,80.076492 124.454811,86.608429 
	C117.331970,104.059769 99.119545,112.781639 80.804619,108.777954 
	C63.598495,105.016663 51.193092,89.365028 50.969170,71.132500 
	C50.948750,69.469521 50.940529,67.806404 50.898975,65.699005 
z"/>
</svg>