<svg width="560" height="560" viewBox="0 0 560 560" fill="none" xmlns="http://www.w3.org/2000/svg">
<circle cx="278.5" cy="299.5" r="175.5" fill="#D2ECF2"/>
<circle cx="114" cy="181" r="11" fill="#D2ECF2"/>
<circle cx="398.5" cy="137.5" r="20.5" fill="#D2ECF2"/>
<circle cx="117.5" cy="412.5" r="19.5" fill="#D2ECF2"/>
<circle cx="466.5" cy="393.5" r="19.5" fill="#D2ECF2"/>
<circle cx="428.5" cy="415.5" r="9.5" fill="#D2ECF2"/>
<path d="M302.525 90.537C301.946 90.4137 301.946 89.5863 302.525 89.463L311.291 87.5989C311.502 87.554 311.668 87.3894 311.713 87.1783L313.601 78.4744C313.726 77.8975 314.549 77.8975 314.674 78.4744L316.561 87.1783C316.607 87.3894 316.772 87.554 316.984 87.5989L325.749 89.463C326.329 89.5863 326.329 90.4137 325.749 90.537L316.984 92.4011C316.772 92.446 316.607 92.6106 316.561 92.8217L314.674 101.526C314.549 102.103 313.726 102.103 313.601 101.526L311.713 92.8217C311.668 92.6106 311.502 92.446 311.291 92.4011L302.525 90.537Z" fill="#1CA0BE"/>
<path d="M331.223 436.622C331.447 435.565 332.956 435.565 333.18 436.622L336.522 452.415C336.604 452.799 336.903 453.101 337.288 453.185L352.917 456.589C353.967 456.818 353.967 458.315 352.917 458.544L337.288 461.948C336.903 462.032 336.604 462.334 336.522 462.718L333.18 478.511C332.956 479.568 331.447 479.568 331.223 478.511L327.88 462.718C327.799 462.334 327.499 462.032 327.115 461.948L311.485 458.544C310.436 458.315 310.436 456.818 311.485 456.589L327.115 453.185C327.499 453.101 327.799 452.799 327.88 452.415L331.223 436.622Z" fill="#1CA0BE"/>
<path d="M465.345 178.622C465.568 177.565 467.078 177.565 467.301 178.622L469.251 187.835C469.333 188.22 469.633 188.521 470.017 188.605L479.161 190.597C480.21 190.826 480.21 192.323 479.161 192.551L470.017 194.543C469.633 194.627 469.333 194.928 469.251 195.313L467.301 204.526C467.078 205.583 465.568 205.583 465.345 204.526L463.395 195.313C463.313 194.928 463.014 194.627 462.629 194.543L453.485 192.551C452.436 192.323 452.436 190.826 453.485 190.597L462.629 188.605C463.014 188.521 463.313 188.22 463.395 187.835L465.345 178.622Z" fill="#1CA0BE"/>
<path d="M475.659 333.331L478.721 347.798L492.982 350.905L478.721 354.011L475.659 368.479L472.597 354.011L458.336 350.905L472.597 347.798L475.659 333.331Z" fill="white"/>
<path d="M254.308 334.621L252.543 335.188L253.958 336.243L266.135 345.322L266.142 345.327L266.15 345.333C273.224 350.512 275.962 354.136 275.5 356.444L275.496 356.462L275.494 356.481C275.189 358.742 272.071 361.024 265.218 363.227C260.575 364.719 256.166 364.932 251.862 364.137C247.431 363.319 242.568 361.336 237.307 357.896C235.495 356.711 234.274 355.82 233.57 355.198L233.527 355.161L233.481 355.124L222.595 346.611L220.965 345.337L218.857 346.014C191.222 354.895 170.182 361.576 155.733 366.056L155.72 366.06L155.708 366.064C152.182 367.197 147.583 367.329 141.571 366.28C135.698 365.255 130.234 363.164 125.179 359.858C122.205 357.913 119.658 355.64 117.564 353.024C104.573 336.392 92.8131 316.48 82.2967 293.278C80.0874 288.354 79.6915 284.72 80.8513 282.268L80.8536 282.263L80.8558 282.258C81.9905 279.751 86.0738 277.23 93.718 274.774C97.6603 273.507 101.053 273.188 103.95 273.512L104.005 273.518L104.059 273.523C107.249 273.813 109.855 274.636 112.053 276.073C114.558 277.711 116.283 279.653 117.154 281.941L117.161 281.96L117.17 281.98C128.494 307.621 139.587 327.754 150.462 342.35L151.779 344.117L154.498 343.244L198.526 329.093L200.2 328.555L198.955 327.532C185.712 316.65 174.082 305.989 164.059 295.551C160.547 291.829 159.268 288.726 159.939 286.172L159.943 286.154L159.947 286.136C160.453 283.558 163.359 281.318 169.119 279.467C173.749 277.979 177.749 277.555 181.169 277.894C184.494 278.224 187.822 279.334 191.18 281.53C193.305 282.919 194.607 283.956 195.249 284.677L195.286 284.719L195.33 284.761C206.166 295.202 217.971 305.902 230.742 316.862L232.334 318.228L234.55 317.516L244.842 314.208C249.669 312.657 253.84 312.201 257.404 312.541C260.864 312.871 264.293 314.007 267.727 316.252C273.486 320.019 275.206 322.912 274.016 325.15C272.736 327.56 268.38 330.098 260.312 332.691L254.308 334.621Z" fill="#1CA0BE" stroke="#1CA0BE" stroke-width="4"/>
<path d="M453.019 269.365L451.253 269.932L452.668 270.987L460.195 276.599L460.203 276.605L460.211 276.611C464.561 279.796 466.043 281.888 465.794 283.13L465.791 283.148L465.788 283.166C465.624 284.383 463.923 285.712 459.763 287.049C457.048 287.921 454.605 288.009 452.305 287.584C449.878 287.136 447.056 286.018 443.875 283.938C442.766 283.213 442.053 282.689 441.659 282.342L441.617 282.304L441.57 282.268L434.841 277.005L433.211 275.73L431.103 276.408C414.02 281.898 401.017 286.026 392.09 288.795L392.077 288.799L392.064 288.803C390.14 289.421 387.6 289.515 384.105 288.905C380.748 288.32 377.566 287.118 374.558 285.151C372.799 284 371.278 282.646 370.017 281.072C362.013 270.824 354.758 258.543 348.265 244.218C346.912 241.203 346.701 239.039 347.374 237.616L347.376 237.612L347.378 237.607C348.017 236.195 350.361 234.702 355.021 233.204C357.363 232.451 359.234 232.309 360.691 232.472L360.746 232.478L360.801 232.483C362.477 232.636 363.816 233.055 364.99 233.823C366.407 234.75 367.408 235.863 367.919 237.206L367.927 237.225L367.935 237.245C374.94 253.105 381.81 265.579 388.559 274.638L389.876 276.405L392.595 275.531L419.813 266.784L421.487 266.246L420.242 265.222C412.075 258.511 404.905 251.94 398.729 245.507C396.617 243.269 395.896 241.453 396.28 239.989L396.285 239.972L396.288 239.954C396.572 238.507 398.202 237.208 401.633 236.105C404.408 235.214 406.664 235.006 408.453 235.184C410.146 235.352 411.955 235.92 413.906 237.196C415.198 238.041 415.934 238.637 416.273 239.018L416.311 239.06L416.354 239.102C423.063 245.566 430.37 252.189 438.274 258.972L439.866 260.339L442.082 259.627L448.445 257.582C451.343 256.65 453.708 256.423 455.588 256.603C457.364 256.773 459.231 257.357 461.226 258.661C464.682 260.922 465.53 262.535 464.9 263.72C464.18 265.076 461.668 266.585 456.73 268.172L453.019 269.365Z" fill="#1CA0BE" stroke="#1CA0BE" stroke-width="4"/>
<path d="M321.384 260.018C337.059 267.83 349.498 278.199 356.969 288.555C364.501 298.998 366.678 308.934 363.013 316.288C359.347 323.643 350.103 327.887 337.231 328.16C324.464 328.43 308.696 324.741 293.02 316.929C277.344 309.116 264.906 298.747 257.435 288.391C249.903 277.949 247.726 268.013 251.391 260.658C255.057 253.304 264.301 249.06 277.173 248.787C289.94 248.517 305.708 252.205 321.384 260.018Z" fill="#77C6D8" stroke="#1CA0BE" stroke-width="4"/>
<path d="M245.097 226.743L277 306.5L282.5 310.5L291 315.5L298.5 318.5L262.494 225.279C262.196 224.508 261.455 224 260.628 224L246.954 224C245.539 224 244.572 225.429 245.097 226.743Z" fill="#77C6D8" stroke="#1CA0BE" stroke-width="4"/>
<path d="M280.897 209.111L328.285 327.463C328.418 327.795 328.718 328.031 329.072 328.082L331.93 328.49C331.976 328.497 332.024 328.5 332.071 328.5L339 328.5L342.923 328.009C342.974 328.003 343.025 327.993 343.074 327.979L346.5 327L349.084 325.893C349.59 325.676 349.826 325.09 349.61 324.582L299.864 207.519C299.7 207.133 299.313 206.891 298.895 206.911L281.777 207.741C281.09 207.774 280.641 208.473 280.897 209.111Z" fill="#77C6D8" stroke="#1CA0BE" stroke-width="4"/>
<path d="M270.166 239.956L297.169 231.293C298.671 230.811 300.28 231.638 300.762 233.141C301.244 234.643 300.417 236.252 298.915 236.734L271.912 245.398L270.166 239.956Z" fill="#1CA0BE" stroke="#1CA0BE" stroke-width="4"/>
<path d="M281.43 268.854L307.958 258.829C309.434 258.271 311.083 259.016 311.641 260.492C312.199 261.968 311.454 263.617 309.978 264.175L283.451 274.2L281.43 268.854Z" fill="#1CA0BE" stroke="#1CA0BE" stroke-width="4"/>
<path d="M293.079 296.52L316.47 286.859C317.929 286.256 319.6 286.95 320.202 288.409C320.805 289.868 320.11 291.538 318.652 292.141L295.26 301.802L293.079 296.52Z" fill="#1CA0BE" stroke="#1CA0BE" stroke-width="4"/>
</svg>
