<svg width="560" height="560" viewBox="0 0 560 560" fill="none" xmlns="http://www.w3.org/2000/svg">
<circle cx="276.5" cy="281.5" r="175.5" fill="#D2ECF2"/>
<circle cx="112" cy="163" r="11" fill="#D2ECF2"/>
<circle cx="396.5" cy="119.5" r="20.5" fill="#D2ECF2"/>
<circle cx="115.5" cy="394.5" r="19.5" fill="#D2ECF2"/>
<circle cx="464.5" cy="375.5" r="19.5" fill="#D2ECF2"/>
<circle cx="426.5" cy="397.5" r="9.5" fill="#D2ECF2"/>
<path d="M305.79 133.537C305.21 133.414 305.21 132.586 305.79 132.463L314.556 130.599C314.767 130.554 314.932 130.389 314.978 130.178L316.865 121.474C316.99 120.897 317.813 120.897 317.938 121.474L319.826 130.178C319.872 130.389 320.037 130.554 320.248 130.599L329.014 132.463C329.594 132.586 329.594 133.414 329.014 133.537L320.248 135.401C320.037 135.446 319.872 135.611 319.826 135.822L317.938 144.526C317.813 145.103 316.99 145.103 316.865 144.526L314.978 135.822C314.932 135.611 314.767 135.446 314.556 135.401L305.79 133.537Z" fill="#1CA0BE"/>
<path d="M92.2229 288.622C92.4467 287.565 93.9558 287.565 94.1796 288.622L97.5224 304.415C97.6038 304.799 97.9034 305.101 98.2878 305.185L113.917 308.589C114.967 308.818 114.967 310.315 113.917 310.544L98.2878 313.948C97.9034 314.032 97.6038 314.334 97.5224 314.718L94.1796 330.511C93.9558 331.568 92.4467 331.568 92.2229 330.511L88.8801 314.718C88.7986 314.334 88.499 314.032 88.1146 313.948L72.4851 310.544C71.4356 310.315 71.4356 308.818 72.4851 308.589L88.1146 305.185C88.499 305.101 88.7986 304.799 88.8801 304.415L92.2229 288.622Z" fill="#1CA0BE"/>
<path d="M433.345 167.622C433.568 166.565 435.078 166.565 435.301 167.622L437.251 176.835C437.333 177.22 437.633 177.521 438.017 177.605L447.161 179.597C448.21 179.826 448.21 181.323 447.161 181.551L438.017 183.543C437.633 183.627 437.333 183.928 437.251 184.313L435.301 193.526C435.078 194.583 433.568 194.583 433.345 193.526L431.395 184.313C431.313 183.928 431.014 183.627 430.629 183.543L421.485 181.551C420.436 181.323 420.436 179.826 421.485 179.597L430.629 177.605C431.014 177.521 431.313 177.22 431.395 176.835L433.345 167.622Z" fill="#1CA0BE"/>
<path d="M473.659 315.331L476.721 329.798L490.982 332.905L476.721 336.011L473.659 350.479L470.597 336.011L456.336 332.905L470.597 329.798L473.659 315.331Z" fill="white"/>
<path d="M197.539 209.873L197.59 209.899L197.643 209.922C203.601 212.515 207.89 214.759 210.845 216.735C213.849 218.744 215.24 220.323 215.755 221.491C216.176 222.445 216.081 223.266 215.369 224.293C214.566 225.452 213.056 226.715 210.838 228.151C208.71 229.529 206.135 230.941 203.284 232.504L203.047 232.634C200.129 234.234 196.963 235.977 193.88 237.926C187.75 241.803 181.687 246.655 178.365 253.232C175.016 259.865 175.07 267.54 176.048 274.639C176.54 278.209 177.278 281.711 177.984 284.936C178.074 285.35 178.164 285.759 178.253 286.162C178.862 288.933 179.415 291.447 179.76 293.676C180.161 296.269 180.23 298.194 179.914 299.507C179.765 300.129 179.548 300.528 179.311 300.792C179.087 301.043 178.759 301.269 178.213 301.418C177.017 301.743 174.911 301.659 171.383 300.599C167.945 299.566 163.42 297.692 157.523 294.775C141.495 283.551 130.425 272.105 124.823 260.651C119.258 249.271 119.043 237.809 124.891 226.23C136.527 203.185 168.877 195.4 197.539 209.873Z" fill="#77C6D8" stroke="#1CA0BE" stroke-width="4"/>
<path d="M58.7316 202.037L59.9271 201.938C83.8342 199.96 107.762 205.506 128.36 217.8V217.8" stroke="#1CA0BE" stroke-width="4"/>
<path d="M51.4594 215.687L53.4532 215.516C77.0837 213.483 100.763 218.829 121.229 230.815V230.815" stroke="#1CA0BE" stroke-width="4"/>
<path d="M242.648 285.693C235.787 299.28 228.031 310.293 217.936 315.839C208.02 321.286 195.417 321.674 178.242 313.001C156.225 301.883 148.546 271.57 161.983 244.96C175.411 218.369 204.333 206.551 226.344 217.63C244.113 227.765 251.255 238.155 252.629 248.977C254.029 260.007 249.541 272.043 242.648 285.693Z" fill="#77C6D8" stroke="#1CA0BE" stroke-width="4"/>
<ellipse cx="212.337" cy="270.252" rx="38.238" ry="52.6208" transform="rotate(-155.936 212.337 270.252)" fill="white"/>
<path d="M247.287 288.035C240.564 301.349 230.506 311.308 219.764 316.693C209.022 322.078 197.731 322.842 188.29 318.075C178.849 313.308 172.761 303.768 170.718 291.926C168.675 280.085 170.718 266.079 177.441 252.766C184.164 239.453 194.222 229.493 204.964 224.108C215.706 218.723 226.997 217.959 236.437 222.727C245.878 227.494 251.966 237.034 254.01 248.875C256.053 260.716 254.009 274.722 247.287 288.035Z" fill="white" stroke="#1CA0BE" stroke-width="4"/>
<path d="M218.093 254.376C220.153 250.298 224.662 248.781 228.008 250.47C231.354 252.16 232.811 256.69 230.751 260.768C228.692 264.847 224.182 266.364 220.836 264.674C217.49 262.984 216.033 258.455 218.093 254.376Z" fill="#1CA0BE" stroke="#1CA0BE" stroke-width="4"/>
<path d="M203.264 283.738C205.323 279.659 209.833 278.142 213.179 279.832C216.525 281.522 217.982 286.051 215.922 290.13C213.863 294.209 209.353 295.726 206.007 294.036C202.661 292.346 201.204 287.817 203.264 283.738Z" fill="#1CA0BE" stroke="#1CA0BE" stroke-width="4"/>
<path d="M306.741 273.584L306.807 273.552L306.869 273.514C343.681 251.588 387.669 258.855 405.439 288.689C423.209 318.523 408.65 360.663 371.838 382.59L371.789 382.619L371.74 382.652C366.507 386.197 362.372 388.442 359.105 389.657C355.819 390.879 353.622 390.98 352.132 390.542C350.724 390.129 349.62 389.138 348.707 387.351C347.767 385.511 347.111 382.976 346.613 379.786C346.119 376.614 345.803 372.967 345.46 368.956L345.442 368.743C345.107 364.817 344.745 360.577 344.161 356.254C342.975 347.464 340.853 338.145 336.023 330.036C331.196 321.931 324.021 315.574 316.864 310.277C313.355 307.68 309.814 305.313 306.533 303.119L306.323 302.978C302.963 300.731 299.907 298.682 297.354 296.708C294.787 294.723 292.867 292.918 291.695 291.204C290.553 289.534 290.212 288.095 290.515 286.686C290.836 285.197 291.958 283.354 294.589 281.108C297.206 278.874 301.14 276.389 306.741 273.584Z" fill="#77C6D8" stroke="#1CA0BE" stroke-width="4"/>
<path d="M479.049 232.143L478.309 233.552C463.513 261.735 440.276 284.588 411.85 298.91V298.91" stroke="#1CA0BE" stroke-width="4"/>
<path d="M468.936 214.28L467.709 216.635C453.171 244.547 430.336 267.265 402.349 281.658V281.658" stroke="#1CA0BE" stroke-width="4"/>
<path d="M254.017 296.922L264.873 290.456L273.756 285.165" stroke="#1CA0BE" stroke-width="4"/>
<path d="M269.228 286.566L269.314 286.525L269.395 286.477C297.904 269.496 337.691 282.703 358.065 316.908C378.433 351.104 371.107 392.366 342.617 409.355C318.903 422.613 301.964 423.298 288.52 416.893C274.872 410.39 264.308 396.371 253.924 378.938C243.593 361.592 236.42 343.654 237.292 327.539C237.725 319.531 240.145 311.961 245.185 305.082C250.235 298.19 257.987 291.893 269.228 286.566Z" fill="#77C6D8" stroke="#1CA0BE" stroke-width="4"/>
<path d="M248.004 382.466C237.813 365.355 233.776 346.864 235.403 330.849C237.031 314.833 244.291 301.432 256.566 294.12C268.842 286.808 284.084 286.807 298.942 293.003C313.799 299.199 328.136 311.555 338.328 328.666C348.519 345.777 352.556 364.268 350.929 380.283C349.301 396.299 342.041 409.701 329.766 417.012C317.49 424.324 302.248 424.325 287.39 418.129C272.533 411.933 258.196 399.577 248.004 382.466Z" fill="white" stroke="#1CA0BE" stroke-width="4"/>
<path d="M306.629 379.659L247.076 415.131C242.858 417.643 237.401 416.261 234.889 412.042C232.376 407.824 233.759 402.368 237.977 399.855L297.53 364.383C301.749 361.871 307.205 363.253 309.718 367.472C312.23 371.69 310.847 377.146 306.629 379.659Z" fill="#D2ECF2" stroke="#1CA0BE" stroke-width="4"/>
<path d="M281.629 341.659L222.076 377.131C217.858 379.643 212.401 378.26 209.889 374.042C207.376 369.824 208.759 364.367 212.977 361.855L272.53 326.383C276.749 323.87 282.205 325.253 284.718 329.471C287.23 333.69 285.847 339.146 281.629 341.659Z" fill="#D2ECF2" stroke="#1CA0BE" stroke-width="4"/>
</svg>
